<svg width="757" height="747" viewBox="0 0 757 747" fill="none" xmlns="http://www.w3.org/2000/svg">
<path d="M137.771 48.559C138.523 48.559 142.675 48.559 147.812 48.559C149.894 48.559 138.957 49.6995 132.678 49.5113C130.907 49.4582 132.046 48.9468 133.192 48.5648C137.659 47.0756 142.31 46.6659 152.557 46.09C158.728 45.7431 163.978 44.385 170.439 43.8091C175.465 43.361 179.945 42.1041 193.031 41.9045C199.85 41.8005 206.54 43.9972 212.071 44.9438C218.753 46.0873 225.563 48.559 230.318 50.0701C236.51 52.0377 240.389 55.014 244.956 56.5365C249.649 58.1007 254.827 59.9636 259.97 62.0449C265.575 64.3131 270.04 67.559 274.608 69.2697C279.473 71.0917 283.726 74.7666 288.293 77.2528C292.856 79.7364 296.658 82.7498 300.65 86.3708C304.681 90.0274 306.923 95.2948 309.968 99.8623C312.969 104.364 316.434 107.84 317.956 112.407C319.521 117.1 323.642 121.525 325.187 125.716C327.854 132.95 305.44 126.498 281.941 125.922C273.395 125.712 268.945 123.076 264.19 121.742C258.847 120.243 254.12 119.655 249.552 118.321C245.134 117.03 235.165 116.986 227.883 115.851C223.126 115.11 218.766 112.812 214.01 111.101C207.993 108.937 202.799 107.11 198.232 105.587C193.539 104.023 189.114 100.655 185.493 96.8515C182.181 93.3728 177.709 91.1435 173.142 88.4863C168.397 85.7258 164.024 82.4077 159.644 78.2279C157.585 76.2626 156.782 73.6604 155.647 71.7616C155.093 70.8339 153.76 70.6154 156.565 70.4215C174.963 69.1501 181.085 71.3681 186.599 72.3147C191.384 73.136 196.664 75.5422 202.565 76.8765C207.74 78.0464 213.018 81.2444 219.478 82.9551C224.434 85.0535 228.984 85.8062 233.551 87.1406C234.698 87.3344 235.827 87.3344 236.99 87.3344" stroke="#5BC34D" stroke-width="61" stroke-linecap="round"/>
<path d="M424.229 35.6203C424.029 35.9565 422.552 37.1637 421.296 38.5188C420.076 39.8361 419.17 40.2749 417.989 41.792C417.075 42.9665 416.334 43.7183 415.724 44.5295C415.027 45.4575 414.106 46.554 413.53 47.3986C412.939 48.2647 412.753 49.1871 412.146 50.1665C411.542 51.1425 411.132 52.4279 410.694 53.2392C410.227 54.1025 409.581 55.0611 408.334 57.4188C407.569 58.8655 406.879 59.7198 406.239 60.6991C405.628 61.6331 404.789 62.5555 404.011 63.871C403.422 64.8671 402.625 65.5937 402.153 66.4384C401.591 67.4452 400.738 68.6279 399.623 70.3516C398.824 71.5894 397.902 72.683 397.427 73.6623C396.913 74.7207 396.144 75.5187 395.638 76.6661C395.165 77.7404 394.187 78.3544 393.646 79.3337C393.143 80.2453 392.498 80.9876 391.891 82.0337C391.231 83.1713 390.01 86.2336 388.921 88.6824C388.231 90.2319 387.705 91.2488 387.198 92.8682C386.778 94.2081 386.421 95.1661 385.781 96.4472C384.926 98.1581 384.667 100.023 384.328 101.377C384.001 102.68 383.383 104.548 382.944 106.068C382.564 107.386 381.9 109.401 381.459 111.503C381.166 112.896 380.616 113.801 380.109 115.183C379.63 116.489 379.129 117.58 378.859 118.629C378.632 119.51 377.983 120.817 377.577 122.34C377.171 123.864 376.699 124.738 376.26 125.751C375.839 126.724 375.82 127.842 375.618 128.992C375.484 129.531 375.415 130.274 375.381 131.083C375.348 131.425 375.281 131.625 375.212 132.237" stroke="#AA7A4B" stroke-width="27" stroke-linecap="round"/>
<path d="M380.305 667.746C371.204 650.297 383.378 662.921 377.294 658.159C363.024 646.992 364.743 635.938 362.445 630.207C360.52 625.406 359.782 621.078 359.777 619.555C359.762 615.477 368.119 624.853 372.499 631.872C375.889 637.306 377.266 644.217 379.347 650.507C379.805 651.892 380.299 652.976 380.305 652.993C382.761 660.362 368.165 634.775 363.979 628.32C357.429 618.217 350.328 607.837 343.263 597.339C338.08 589.637 334.339 577.798 330.895 566.741C328.616 559.425 329.367 553.802 328.42 546.965C327.425 539.775 326.333 532.909 324.999 522.103C321.567 494.316 323.664 484.28 322.718 473.623C320.595 449.721 321.383 436.039 320.437 420.056C318.005 378.997 322.136 373.611 323.47 367.72C324.949 361.195 326.31 355.751 327.274 350.796C328.182 346.127 330.872 341.678 333.917 333.324C335.962 327.713 338.855 323.431 340.954 317.729C343.104 311.885 347.203 303.701 350.836 296.06C353.448 290.565 355.962 285.796 358.249 281.229C360.909 275.914 365.086 272.111 367.372 267.919C369.596 263.844 374.209 260.706 378.577 255.95C383.681 250.394 388.26 245.88 393.973 240.366C398.361 236.132 402.333 232.56 405.954 228.768C409.962 224.57 414.125 221.931 418.305 218.498C422.393 215.141 431.939 211.302 440.72 206.717C450.085 201.828 454.794 200.627 459.549 199.863C465.446 198.915 469.619 196.065 476.08 194.355C481.435 192.937 485.586 190.363 494.886 189.787C500.569 189.435 524.544 187.694 539.569 188.641C546.053 189.049 550.592 189.975 555.159 191.11C559.96 192.303 564.277 195.29 568.845 197.759C573.264 200.148 577.21 203.638 581.013 206.312C584.563 208.809 587.474 212.761 590.707 217.329C594.214 222.283 598.491 226.447 601.165 230.826C603.9 235.305 608.755 238.239 611.623 241.29C612.394 242.11 611.811 237.886 612.387 235.799C613.675 231.132 605.368 230.655 604.221 230.273C600.688 229.095 612.176 234.818 616.179 238.051C619.561 240.783 621.687 245.835 625.679 249.455C629.71 253.112 632.946 264.606 635.19 260.666C646.23 241.29 665.461 291.493 668.13 296.06C670.505 300.125 647.165 284.222 648.688 289.177C650.243 294.24 652.867 300.189 654.39 305.144C655.804 309.746 657.429 314.262 658.952 318.829C660.474 323.397 662.744 327.947 663.896 332.515C666.346 342.23 665.047 357.599 663.713 363.489C662.235 370.014 662.379 376.211 661.244 381.554C659.652 389.051 659.345 399.796 658.769 407.203C658.306 413.163 656.312 419.183 655.348 425.644C654.537 431.079 652.502 436.29 650.98 440.858C649.457 445.425 647.941 449.976 646.23 454.543C644.346 459.573 641.873 464.049 640.334 468.229C638.507 473.187 635.396 477.346 631.98 481.914C628.814 486.148 626.272 491.032 623.05 495.976C617.837 503.976 609.576 509.644 605.179 514.611C601.996 518.207 597.396 521.824 592.452 525.821C585.026 531.825 580.289 537.79 574.017 544.251C569.579 548.822 566.216 553.757 563.359 558.324C560.695 562.584 558.985 567.442 558.216 571.069C557.318 575.298 566.558 565.96 569.991 561.78C573.424 557.599 576.457 553.802 578.356 549.235C580.548 543.962 584.805 540.87 587.291 536.69C589.996 532.144 594.317 528.712 598.496 526.226C600.758 524.881 603.064 523.375 604.21 522.799C608.174 520.807 595.503 528.667 591.494 533.422C586.763 539.036 582.57 545.386 578.191 550.341C574.333 554.706 570.778 559.459 567.544 563.838C564.174 568.403 559.373 572.004 555.382 576.572C551.697 580.788 548.356 584.184 545.87 587.976C542.97 592.4 537.34 596.706 532.384 600.715C527.853 604.381 523.266 607.358 518.511 609.844C513.005 612.722 508.44 615.729 503.873 618.586C499.749 621.165 495.896 623.347 492.275 626.375C488.613 629.437 483.351 630.555 478.783 632.465C474.341 634.323 469.665 636.257 465.098 638.356C459.912 640.738 454.839 644.24 450.272 647.097C446.135 649.685 441.906 649.578 439.249 648.825C433.162 647.101 433.536 635.938 432.96 629.642C431.526 613.975 432.76 592.578 433.336 582.331C434.082 569.06 433.536 549.241 432.201 540.887C431.354 535.581 430.114 528.735 426.51 515.244C424.484 507.658 423.271 500.977 421.561 494.128C418.564 482.132 418.71 477.392 417.757 467.721C416.512 455.072 414.148 450.021 413.572 439.21C413.053 429.46 411.867 420.392 411.667 391.755C411.594 381.164 413.372 372.128 418.105 353.904C424.192 330.465 429.339 326.1 432.754 320.198C435.487 315.476 441.473 307.875 448.515 300.434C455.978 292.548 463.142 289.97 486.658 272.726C495.597 266.172 502.305 264.88 510.1 263.916C515.664 263.228 521.693 262.211 535.167 262.012C542.069 261.91 547.17 267.503 550.979 272.071C557.54 279.938 565.782 299.732 567.909 319.918C568.669 327.131 568.862 339.283 568.485 354.098C568.101 369.211 562.794 381.913 560.508 391.795C557.796 403.513 549.907 422.126 543.795 440.236C536.539 461.733 530.109 467.082 526.112 473.161C520.817 481.213 517.176 486.082 514.137 492.355C507.945 505.133 502.738 511.172 494.761 527.675C491.095 535.258 489.418 540.824 487.89 544.462C487.733 544.834 489.76 542.786 490.912 540.881C492.064 538.976 492.816 536.718 493.204 522.759C493.592 508.8 493.592 483.208 493.78 469.084C494.039 449.612 495.485 444.319 496.061 438.617C496.718 432.114 500.777 414.029 503.092 402.881C504.585 395.688 508.783 390.718 509.934 386.15C511.227 381.026 515.625 376.28 518.482 372.453C518.827 371.992 519.434 373.565 518.876 375.464C515.115 388.243 506.525 398.655 503.867 403.411C499.48 411.263 494.002 429.744 490.37 438.765C487.9 444.899 485.244 451.116 480.306 463.062C475.908 473.7 473.451 480.768 470.036 490.256C467.705 496.73 466.221 502.049 462.246 512.872C459.501 520.349 457.097 526.386 453.881 533.981C450.33 542.368 445.716 554.487 441.713 561.552C439.043 566.263 436.204 572.757 433.159 579.793C430.52 585.893 427.833 590.251 424.418 594.819C421.453 598.784 419.485 603.184 417.757 606.987C415.902 611.071 409.609 614.201 401.814 621.232C397.437 625.179 392.114 626.381 387.547 629.038C382.974 631.698 378.429 633.976 372.915 636.833C368.297 639.226 363.603 641.207 359.036 644.434C355.224 647.127 349.918 646.909 343.28 648.243C328.522 651.21 323.687 645.404 319.12 642.934C314.7 640.545 310.002 638.561 305.434 637.038C300.62 635.433 295.176 634.387 290.608 633.423C285.838 632.417 281.49 628.684 276.923 626.586C272.03 624.338 267.805 620.701 263.237 618.415C258.131 615.858 254.12 613.471 249.552 610.814C244.807 608.053 240.434 605.488 234.732 602.83C228.863 600.096 224.468 596.752 219.9 594.842C215.337 592.933 210.782 589.909 206.215 587.052C201.813 584.299 197.097 581.538 193.476 578.123C189.886 574.736 184.552 572.802 179.984 569.569C175.227 566.202 171.619 562.926 168.386 558.547C165.185 554.211 161.355 550.381 157.364 546.76C153.333 543.103 150.338 538.589 147.664 534.409C144.586 529.599 141.215 525.291 137.594 520.912C134.159 516.758 131.316 512.746 126.953 507.232C123.187 502.471 119.911 496.78 115.549 491.266C112.218 487.055 110.787 481.954 108.318 477.386C105.998 473.094 103.58 468.268 101.094 463.701C98.61 459.138 97.102 454.583 94.633 450.016C92.3126 445.723 91.3998 440.898 89.8773 436.33C87.923 430.467 87.9784 422.65 87.4025 415.243C86.9679 409.653 85.6975 404.403 84.3632 399.083C82.3207 390.939 83.0289 370.349 83.9754 356.504C84.3671 350.775 85.3098 345.487 86.4445 339.397C87.5276 333.584 88.7311 329.133 89.6777 323.619C90.489 318.893 91.7647 314.307 93.0991 308.793C94.2408 304.075 96.3265 299.481 98.0372 294.726C100.202 288.709 102.781 283.515 105.827 278.948C108.872 274.38 112.658 269.83 115.144 265.262C117.533 260.873 122.169 258.425 125.214 253.858C128.259 249.29 133.551 243.234 137.947 238.079C141.445 233.979 145.731 231.419 149.352 228.004C152.942 224.617 158.276 222.683 162.843 219.638C167.345 216.637 170.821 213.172 175.012 210.327C176.025 209.639 176.158 208.245 177.105 208.04C182.515 206.867 186.787 212.396 191.355 214.107C196.22 215.929 200.473 218.099 205.04 220.38C209.579 222.646 234.116 223.048 248.377 224.183C254.17 224.644 260.917 226.082 272.11 226.658C278.174 226.97 282.585 229.503 294.725 230.079C303.894 230.514 314.518 231.784 319.85 232.736C324.203 233.514 312.283 236.734 306.769 238.815C300.92 241.023 291.025 243.941 279.044 246.228C272.271 247.521 267.794 249.279 260.249 250.972C226.478 258.554 218.013 264.857 213.058 267.326C208.252 269.721 202.799 272.453 196.715 278.526C192.73 282.504 191.76 288.031 190.425 294.863C188.162 306.449 194.383 321.766 198.015 331.374C200.267 337.33 206.928 346.924 211.883 353.419C216.44 359.392 219.473 367.452 225.186 375.082C230.195 381.77 231.653 389.509 234.509 400.919C236.05 407.073 236.99 413.093 238.125 418.425C239.68 425.731 241.552 431.728 243.627 439.495C249.413 461.143 251.428 467.082 252.762 472.214C254.636 479.421 254.097 484.189 255.232 488.757C256.479 493.777 258.271 499.768 260.175 503.218C263.128 508.566 250.333 494.111 215.669 469.694C184.896 448.017 183.411 439.757 177.327 430.457C173.961 425.311 170.867 421.122 167.434 415.996C164.397 411.46 162.496 406.684 158.692 402.116C157.546 399.841 156.406 397.173 155.265 394.327C154.877 392.987 154.877 391.858 154.877 390.695" stroke="#FF4CAE" stroke-width="139" stroke-linecap="round"/>
<path d="M377.13 733.746C743.13 692.746 895.129 206.246 553.13 117.246C491.13 104.746 444.114 111.768 396.13 140.379M377.13 733.746C-47.8698 650.746 -79.8698 244.746 170.13 127.746M377.13 733.746C156.383 485.876 249.528 227.789 396.13 140.379M358.13 156.746C358.13 76.7459 253.13 -40.2541 85.1298 38.7459C123.13 83.7459 203.293 189.254 358.13 156.746ZM358.13 156.746C358.13 156.746 358.629 125.246 368.63 93.2459C378.63 61.2459 404.13 27.7459 411.13 21.7459C418.13 15.7459 443.63 29.7459 443.63 38.7459C443.63 47.7459 426.13 63.7463 411.13 89.7459C396.13 115.746 396.13 140.379 396.13 140.379" stroke="black" stroke-width="25"/>
</svg>
